# xmcd
#
# Track frame offsets: 
#        150
#        12772
#        37660
#        57525
#        84205
#        109215
#        126427
#        144900
#        170655
#        190167
#        209982
#
# Disc length: 2998 seconds
#
# Revision: 11
# Processed by: cddbd v1.5.2PL0 Copyright (c) Steve Scherf et al.
# Submitted via: ExactAudioCopy v0.99pb5
#
DISCID=980bb40b
DTITLE=Lostprophets - Thefakesoundofprogress
DYEAR=2001
DGENRE=Rock
TTITLE0=Shinobi vs. Dragon Ninja
TTITLE1=The Fake Sound Of Progress
TTITLE2=Five Is A Four Letter Word
TTITLE3=And She Told Me To Leave
TTITLE4=Kobrakai
TTITLE5=The Handsome Life Of Swing
TTITLE6=A Thousand Apologies
TTITLE7=Still Laughing
TTITLE8=For Sure
TTITLE9=Awkward
TTITLE10=Ode To Summer
EXTD=YEAR: 2001
EXTT0=
EXTT1=
EXTT2=
EXTT3=
EXTT4=
EXTT5=
EXTT6=
EXTT7=
EXTT8=
EXTT9=
EXTT10=
PLAYORDER=
